# xmcd CD database file
#
# Track frame offsets:
#	150
#	17589
#	30746
#	50855
#	64211
#	84588
#	98643
#	119746
#	130425
#	145897
#	161786
#	176558
#	198703
#	219450
#	232300
#	244791
#
# Disc length: 3430 seconds
#
# Revision: 0
# Processed by: cddbd v1.4PL0 Copyright (c) Steve Scherf et al.
# Submitted via: Feurio! 1.65 - http://www.feurio.com
#
DISCID=f70d6410
DTITLE=Various Artist - Smooth Stepping and More
DYEAR=1900
DGENRE=Blues
TTITLE0=Willie Clayton - Tell Me
TTITLE1=The Manhattans - So Bring Me Back
TTITLE2=Dramatics - You're The Best Thing In My Life
TTITLE3=Miracles - Darling Dear
TTITLE4=Slipping Away
TTITLE5=Artistics - Make My Life Over
TTITLE6=Blue Magic - It's Like Magic
TTITLE7=I Call It Love
TTITLE8=Pretenders - I'm The One Love Forgot
TTITLE9=Impressions - Sooner Or Later
TTITLE10=Courtships - Same Ole Love
TTITLE11=Stylistics - United
TTITLE12=Stylistics - Mine All Mine
TTITLE13=Vibrations - Cindy
TTITLE14=I Like Your Style
TTITLE15=Cleophus Robinson - Sweet Home
EXTD=
EXTT0=
EXTT1=
EXTT2=
EXTT3=
EXTT4=
EXTT5=
EXTT6=
EXTT7=
EXTT8=
EXTT9=
EXTT10=
EXTT11=
EXTT12=
EXTT13=
EXTT14=
EXTT15=
PLAYORDER=
